<mxfile host="app.diagrams.net" modified="2023-10-02T10:29:16.918Z" agent="Mozilla/5.0 (Windows NT 10.0; Win64; x64) AppleWebKit/537.36 (KHTML, like Gecko) Chrome/117.0.0.0 Safari/537.36" version="22.0.0" etag="1aJHTaic6QVP0Qo32NRo" type="github">
  <diagram name="Page-1" id="Crza7iwrKwsHMN4p9pFY">
    <mxGraphModel>
      <root>
        <mxCell id="0" />
        <mxCell id="1" parent="0" />
      </root>
    </mxGraphModel>
  </diagram>
</mxfile>
